<svg xmlns="http://www.w3.org/2000/svg" width="15.354" height="13.974" viewBox="0 0 15.354 13.974"><defs><style>.a{fill:currentColor;}</style></defs><g transform="translate(0 -23.01)"><path class="a" d="M361,23.01V33.356a1.789,1.789,0,0,1,.9.242V23.91A.9.9,0,0,0,361,23.01Z" transform="translate(-350.174)"/><path class="a" d="M415.406,68.01h-2.279v10.8q0,.022,0,.043a1.787,1.787,0,0,1-.241.857h2.522a.45.45,0,0,0,.45-.45V68.46A.45.45,0,0,0,415.406,68.01Z" transform="translate(-400.502 -43.651)"/><path class="a" d="M273.7,77.906h-.448a.45.45,0,0,1-.45-.45V68.01H271V80.556a.9.9,0,0,1,.9-.85h1.8a.9.9,0,1,0,0-1.8Z" transform="translate(-262.873 -43.651)"/><path class="a" d="M0,68.46v10.8a.45.45,0,0,0,.45.45H6.326a.9.9,0,0,1,.9.858c0,.014,0,.028,0,.042s0,.02,0,.029V68.01H.45A.45.45,0,0,0,0,68.46Zm1.829,2.009h3.6a.45.45,0,0,1,0,.9h-3.6a.45.45,0,0,1,0-.9Zm3.569,3.6a.45.45,0,0,1-.247.4L2.482,75.819a.45.45,0,0,1-.653-.4v-2.7a.45.45,0,0,1,.653-.4l2.669,1.351a.45.45,0,0,1,.247.4Zm-3.569,2.7h3.6a.45.45,0,1,1,0,.9h-3.6a.45.45,0,1,1,0-.9Z" transform="translate(0 -43.651)"/><path class="a" d="M91,250.651l1.222-.617L91,249.415Z" transform="translate(-88.271 -219.615)"/></g></svg>