<svg xmlns="http://www.w3.org/2000/svg" width="21.273" height="21.273" viewBox="0 0 21.273 21.273"><defs><style>.a{fill:#1e1656;}</style></defs><path class="a" d="M10.637,0A10.637,10.637,0,1,0,21.273,10.637,10.637,10.637,0,0,0,10.637,0Zm0,19.279a8.642,8.642,0,1,1,8.642-8.642A8.642,8.642,0,0,1,10.637,19.279Zm0-14.614c-.762,0-1.338.4-1.338,1.04v5.89c0,.643.576,1.039,1.338,1.039.743,0,1.338-.413,1.338-1.039V5.7C11.975,5.078,11.38,4.665,10.637,4.665Zm0,9.3a1.328,1.328,0,1,0,1.327,1.328A1.329,1.329,0,0,0,10.637,13.961Z"/></svg>