<svg xmlns="http://www.w3.org/2000/svg" width="13.287" height="11.724" viewBox="0 0 13.287 11.724"><defs><style>.a{fill:currentColor;}</style></defs><g transform="translate(0 -17.675)"><path class="a" d="M1.209,20.593H3.861a.133.133,0,0,0,.133-.133V17.808a.133.133,0,0,0-.133-.133H1.209a.133.133,0,0,0-.133.133V20.46A.133.133,0,0,0,1.209,20.593Z" transform="translate(-1.028)"/><path class="a" d="M1.209,119.592H3.861a.133.133,0,0,0,.133-.133v-2.653a.133.133,0,0,0-.133-.133H1.209a.133.133,0,0,0-.133.133v2.653A.133.133,0,0,0,1.209,119.592Z" transform="translate(-1.028 -94.62)"/><path class="a" d="M2.833,214.6H.18a.18.18,0,0,0-.18.18v2.653a.18.18,0,0,0,.18.18H2.833a.18.18,0,0,0,.18-.18v-2.653A.18.18,0,0,0,2.833,214.6ZM.847,216.766v-1.32h1.32v1.32Z" transform="translate(0 -188.214)"/><path class="a" d="M116.116,31.96h-8.257a.133.133,0,0,0-.133.133v1.389a.133.133,0,0,0,.133.133h8.257a.133.133,0,0,0,.133-.133V32.093A.133.133,0,0,0,116.116,31.96Z" transform="translate(-102.961 -13.653)"/><path class="a" d="M116.118,130.958h-8.257a.133.133,0,0,0-.133.133v1.389a.133.133,0,0,0,.133.133h8.257a.133.133,0,0,0,.133-.133v-1.389A.133.133,0,0,0,116.118,130.958Z" transform="translate(-102.964 -108.272)"/><path class="a" d="M116.118,229.958h-8.257a.133.133,0,0,0-.133.133v1.389a.133.133,0,0,0,.133.133h8.257a.133.133,0,0,0,.133-.133v-1.389A.133.133,0,0,0,116.118,229.958Z" transform="translate(-102.964 -202.893)"/></g></svg>