<svg xmlns="http://www.w3.org/2000/svg" width="65" height="65" viewBox="0 0 65 65"><defs><style>.a,.b{fill:#fff;}.a{opacity:0.5;}</style></defs><g transform="translate(-667 -426)"><circle class="a" cx="32.5" cy="32.5" r="32.5" transform="translate(667 426)"/><path class="b" d="M80.141,13.685V9.7a9.7,9.7,0,0,0-19.4,0v3.949a1.78,1.78,0,0,0-1.2,1.777v5.43a10.9,10.9,0,1,0,21.8,0v-5.43A1.777,1.777,0,0,0,80.141,13.685ZM72.514,25.352a.268.268,0,0,1-.272.329H68.684a.268.268,0,0,1-.272-.329l.57-3.019a2.169,2.169,0,1,1,2.956-.033ZM76.8,13.492H64.088V9.7A6.354,6.354,0,1,1,76.8,9.7Z" transform="translate(629.456 443)"/></g></svg>