<?xml version="1.0" encoding="UTF-8" standalone="no"?>
<svg
   aria-hidden="true"
   focusable="false"
   data-prefix="fas"
   data-icon="lock"
   class="svg-inline--fa fa-lock fa-w-14"
   role="img"
   viewBox="0 0 106.28711 106.28711"
   version="1.1"
   id="svg4"
   sodipodi:docname="lock-solid.svg"
   width="106.28711"
   height="106.28711"
   inkscape:version="1.1 (c4e8f9ed74, 2021-05-24)"
   xmlns:inkscape="http://www.inkscape.org/namespaces/inkscape"
   xmlns:sodipodi="http://sodipodi.sourceforge.net/DTD/sodipodi-0.dtd"
   xmlns="http://www.w3.org/2000/svg"
   xmlns:svg="http://www.w3.org/2000/svg">
  <defs
     id="defs8" />
  <sodipodi:namedview
     id="namedview6"
     pagecolor="#ffffff"
     bordercolor="#666666"
     borderopacity="1.0"
     inkscape:pageshadow="2"
     inkscape:pageopacity="0.0"
     inkscape:pagecheckerboard="0"
     showgrid="false"
     width="36px"
     inkscape:zoom="1.8837767"
     inkscape:cx="-42.733304"
     inkscape:cy="22.295637"
     inkscape:window-width="1920"
     inkscape:window-height="1048"
     inkscape:window-x="1920"
     inkscape:window-y="0"
     inkscape:window-maximized="1"
     inkscape:current-layer="svg4" />
  <path
     id="path927"
     style="fill:#ffffff;fill-opacity:1;stroke-width:88.2493;stroke-linejoin:round"
     d="M 53.144529,0 A 53.143642,53.143642 0 0 0 0,53.144528 53.143642,53.143642 0 0 0 53.144529,106.28711 53.143642,53.143642 0 0 0 106.28711,53.144528 53.143642,53.143642 0 0 0 53.144529,0 Z m 0,22.949219 c 8.3026,0 15.05859,8.045733 15.05859,17.929688 v 8.492191 h 2.37891 c 2.62552,0 4.7539,2.53457 4.7539,5.66015 v 22.64649 c 0,3.1256 -2.12838,5.66211 -4.7539,5.66211 h -34.875 c -2.62552,0 -4.75586,-2.53651 -4.75586,-5.66211 v -22.64649 c 0,-3.12558 2.13034,-5.66015 4.75586,-5.66015 h 2.37695 v -8.492191 c 0,-9.883955 6.75794,-17.929688 15.06055,-17.929688 z m 0,9.4375 c -3.93334,0 -7.13477,3.809695 -7.13477,8.492188 v 8.492191 h 14.26758 v -8.492191 c 0,-4.682493 -3.19948,-8.492188 -7.13281,-8.492188 z m -0.45508,26.929689 a 5.9666834,5.7708936 0 0 0 -5.9668,5.77148 5.9666834,5.7708936 0 0 0 2.74024,4.85547 v 6.97461 h 6.45117 v -6.97461 a 5.9666834,5.7708936 0 0 0 2.74219,-4.85547 5.9666834,5.7708936 0 0 0 -5.9668,-5.77148 z" />
</svg>
