<?xml version="1.0" encoding="UTF-8" standalone="no"?>
<svg
   xmlns:dc="http://purl.org/dc/elements/1.1/"
   xmlns:cc="http://creativecommons.org/ns#"
   xmlns:rdf="http://www.w3.org/1999/02/22-rdf-syntax-ns#"
   xmlns:svg="http://www.w3.org/2000/svg"
   xmlns="http://www.w3.org/2000/svg"
   xmlns:sodipodi="http://sodipodi.sourceforge.net/DTD/sodipodi-0.dtd"
   xmlns:inkscape="http://www.inkscape.org/namespaces/inkscape"
   id="Layer_1"
   data-name="Layer 1"
   viewBox="0 0 108.85 39.973176"
   version="1.1"
   sodipodi:docname="logo_no_subtitle_color.svg"
   width="108.85"
   height="39.973175"
   inkscape:version="1.0.1 (3bc2e813f5, 2020-09-07)">
  <metadata
     id="metadata199">
    <rdf:RDF>
      <cc:Work
         rdf:about="">
        <dc:format>image/svg+xml</dc:format>
        <dc:type
           rdf:resource="http://purl.org/dc/dcmitype/StillImage" />
      </cc:Work>
    </rdf:RDF>
  </metadata>
  <sodipodi:namedview
     pagecolor="#ffffff"
     bordercolor="#666666"
     borderopacity="1"
     objecttolerance="10"
     gridtolerance="10"
     guidetolerance="10"
     inkscape:pageopacity="0"
     inkscape:pageshadow="2"
     inkscape:window-width="1920"
     inkscape:window-height="1048"
     id="namedview197"
     showgrid="false"
     inkscape:zoom="9.7014241"
     inkscape:cx="54.424999"
     inkscape:cy="27.9"
     inkscape:window-x="0"
     inkscape:window-y="0"
     inkscape:window-maximized="1"
     inkscape:current-layer="Layer_1" />
  <defs
     id="defs4">
    <style
       id="style2">.cls-1{fill:#00b2e2;}.cls-2{fill:#0076bc;}.cls-3{fill:#20285c;}.cls-4{fill:#00483a;}</style>
  </defs>
  <title
     id="title6">hbku</title>
  <polygon
     class="cls-1"
     points="90.22,0.05 81.4,8.86 90.22,17.68 "
     id="polygon8" />
  <polygon
     class="cls-2"
     points="81.4,8.86 72.58,0.05 72.58,17.68 "
     id="polygon10" />
  <polygon
     class="cls-1"
     points="100.03,8.86 108.85,0.05 91.21,0.05 "
     id="polygon12" />
  <polygon
     class="cls-2"
     points="100.03,8.86 91.21,0.05 91.21,17.68 "
     id="polygon14" />
  <polygon
     class="cls-2"
     points="108.85,18.68 100.03,27.49 108.85,36.31 "
     id="polygon16" />
  <polygon
     class="cls-1"
     points="108.85,36.31 100.03,27.49 91.21,36.31 "
     id="polygon18" />
  <polygon
     class="cls-2"
     points="100.03,27.49 91.21,18.68 91.21,36.31 "
     id="polygon20" />
  <polygon
     class="cls-2"
     points="81.4,27.49 90.22,18.68 72.58,18.68 "
     id="polygon22" />
  <polygon
     class="cls-1"
     points="81.4,27.49 72.58,18.68 72.58,36.31 "
     id="polygon24" />
  <polygon
     class="cls-3"
     points="91.21,17.68 108.85,17.68 100.03,8.86 98.7,10.2 104.3,15.8 93.1,15.8 "
     id="polygon26" />
  <polygon
     class="cls-3"
     points="72.58,17.68 90.22,17.68 81.4,8.86 80.07,10.2 85.67,15.8 74.47,15.8 "
     id="polygon28" />
  <polygon
     class="cls-3"
     points="72.58,36.31 90.22,36.31 81.4,27.49 80.07,28.82 85.67,34.42 74.47,34.42 "
     id="polygon30" />
  <polygon
     class="cls-3"
     points="91.21,36.31 108.85,36.31 106.96,34.42 93.1,34.42 "
     id="polygon32" />
  <rect
     class="cls-3"
     x="42.426098"
     y="97.126083"
     width="1.88"
     height="1.88"
     transform="rotate(-45.02)"
     id="rect34" />
  <rect
     class="cls-3"
     x="41.328773"
     y="80.197685"
     width="1.89"
     height="1.88"
     transform="rotate(-45)"
     id="rect36" />
  <rect
     class="cls-3"
     x="55.630268"
     y="83.942406"
     width="1.88"
     height="1.88"
     transform="rotate(-45)"
     id="rect38" />
  <polygon
     class="cls-3"
     points="0.98,25.61 0.98,27.7 0,27.7 0,22.69 0.98,22.69 0.98,24.74 2.68,24.74 2.68,22.69 3.65,22.69 3.65,27.7 2.68,27.7 2.68,25.61 "
     id="polygon40" />
  <path
     class="cls-3"
     d="M 7.68,27.71 7.41,26.82 H 5.6 l -0.3,0.89 h -1 l 1.82,-5 h 0.77 l 1.83,5 h -1 z M 6.51,24.17 5.88,25.99 h 1.25 z"
     id="path42" />
  <polygon
     class="cls-3"
     points="11.92,26.68 11.25,26.68 10.29,24.78 10.29,27.7 9.31,27.7 9.31,22.69 10.28,22.69 11.59,25.4 12.89,22.69 13.85,22.69 13.85,27.7 12.87,27.7 12.87,24.78 "
     id="polygon44" />
  <path
     class="cls-3"
     d="m 17.88,27.71 -0.3,-0.89 H 15.8 l -0.3,0.89 h -1 l 1.82,-5 h 0.77 l 1.83,5 h -1 z M 16.71,24.18 16.08,26 h 1.25 z"
     id="path46" />
  <path
     class="cls-3"
     d="m 22.65,27.23 a 1.83,1.83 0 0 1 -1.32,0.48 h -1.82 v -5 h 1.81 a 1.83,1.83 0 0 1 1.32,0.48 2.53,2.53 0 0 1 0.51,2 2.62,2.62 0 0 1 -0.51,2 m -0.68,-3.35 a 0.87,0.87 0 0 0 -0.73,-0.31 h -0.74 v 3.26 h 0.74 a 0.87,0.87 0 0 0 0.73,-0.31 2.21,2.21 0 0 0 0.21,-1.34 2,2 0 0 0 -0.21,-1.3"
     id="path48" />
  <path
     class="cls-3"
     d="m 28.05,27.71 h -2.1 v -5 h 2 a 1.37,1.37 0 0 1 1.55,1.41 1.16,1.16 0 0 1 -0.62,1 1.17,1.17 0 0 1 0.69,1.13 1.38,1.38 0 0 1 -1.53,1.44 m -0.16,-4.14 h -1 v 1.16 h 1 a 0.58,0.58 0 1 0 0,-1.16 m 0.06,2 h -1 v 1.23 h 1 a 0.62,0.62 0 1 0 0,-1.23"
     id="path50" />
  <rect
     class="cls-3"
     x="30.58"
     y="22.690001"
     width="0.98000002"
     height="5.0100002"
     id="rect52" />
  <polygon
     class="cls-3"
     points="33.7,27.7 32.73,27.7 32.73,22.69 33.6,22.69 35.59,25.76 35.59,22.69 36.56,22.69 36.56,27.7 35.69,27.7 33.7,24.63 "
     id="polygon54" />
  <polygon
     class="cls-3"
     points="40.34,26.2 40.34,27.7 39.36,27.7 39.36,22.69 40.34,22.69 40.34,24.88 42.11,22.69 43.3,22.69 41.64,24.68 43.42,27.7 42.28,27.7 40.99,25.43 "
     id="polygon56" />
  <polygon
     class="cls-3"
     points="45.02,25.61 45.02,27.7 44.05,27.7 44.05,22.69 45.02,22.69 45.02,24.74 46.72,24.74 46.72,22.69 47.7,22.69 47.7,27.7 46.72,27.7 46.72,25.61 "
     id="polygon58" />
  <path
     class="cls-3"
     d="m 51.72,27.71 -0.31,-0.89 h -1.77 l -0.3,0.89 h -1 l 1.82,-5 h 0.75 l 1.83,5 h -1 z M 50.55,24.18 49.92,26 h 1.25 z"
     id="path60" />
  <polygon
     class="cls-3"
     points="54.33,22.69 54.33,26.83 56.61,26.83 56.61,27.7 53.35,27.7 53.35,22.69 "
     id="polygon62" />
  <rect
     class="cls-3"
     x="57.400002"
     y="22.690001"
     width="0.98000002"
     height="5.0100002"
     id="rect64" />
  <polygon
     class="cls-3"
     points="62.5,24.8 62.5,25.67 60.53,25.67 60.53,27.7 59.55,27.7 59.55,22.69 62.85,22.69 62.85,23.57 60.53,23.57 60.53,24.8 "
     id="polygon66" />
  <path
     class="cls-3"
     d="m 66.56,27.71 -0.29,-0.89 h -1.79 l -0.3,0.89 h -1 l 1.82,-5 h 0.77 l 1.83,5 h -1 z m -1.15,-3.54 -0.63,1.82 h 1.25 z"
     id="path68" />
  <path
     class="cls-3"
     d="m 30.8,36.34 a 1.74,1.74 0 0 1 -1.84,-1.76 v -3.29 h 1 v 3.26 a 0.87,0.87 0 1 0 1.74,0 v -3.26 h 1 v 3.29 a 1.75,1.75 0 0 1 -1.85,1.76"
     id="path70" />
  <polygon
     class="cls-3"
     points="34.7,36.3 33.73,36.3 33.73,31.29 34.6,31.29 36.58,34.36 36.58,31.29 37.56,31.29 37.56,36.3 36.69,36.3 34.7,33.22 "
     id="polygon72" />
  <rect
     class="cls-3"
     x="38.73"
     y="31.290001"
     width="0.98000002"
     height="5.0100002"
     id="rect74" />
  <polygon
     class="cls-3"
     points="40.31,31.29 41.33,31.29 42.34,34.55 43.34,31.29 44.36,31.29 42.7,36.3 41.97,36.3 "
     id="polygon76" />
  <polygon
     class="cls-3"
     points="48.27,31.29 48.27,32.16 45.94,32.16 45.94,33.34 47.92,33.34 47.92,34.21 45.94,34.21 45.94,35.43 48.27,35.43 48.27,36.3 44.97,36.3 44.97,31.29 "
     id="polygon78" />
  <path
     class="cls-3"
     d="m 51.89,36.3 -1,-2 h -0.68 v 2 h -1 v -5 h 2 a 1.51,1.51 0 0 1 1.63,1.53 1.35,1.35 0 0 1 -0.92,1.31 l 1.12,2.16 z m -0.76,-4.14 h -0.92 v 1.32 h 0.92 a 0.66,0.66 0 1 0 0,-1.32"
     id="path80" />
  <path
     class="cls-3"
     d="m 55.21,36.34 a 2.36,2.36 0 0 1 -1.8,-0.66 l 0.6,-0.63 a 1.64,1.64 0 0 0 1.21,0.42 c 0.58,0 0.89,-0.22 0.89,-0.62 a 0.56,0.56 0 0 0 -0.15,-0.42 0.76,0.76 0 0 0 -0.44,-0.18 l -0.61,-0.08 a 1.7,1.7 0 0 1 -1,-0.41 1.32,1.32 0 0 1 -0.36,-1 1.54,1.54 0 0 1 1.75,-1.52 2.14,2.14 0 0 1 1.62,0.58 l -0.62,0.61 a 1.4,1.4 0 0 0 -1,-0.35 0.66,0.66 0 0 0 -0.77,0.63 0.48,0.48 0 0 0 0.15,0.36 0.86,0.86 0 0 0 0.46,0.2 l 0.59,0.08 a 1.65,1.65 0 0 1 1,0.39 1.4,1.4 0 0 1 0.39,1.06 1.62,1.62 0 0 1 -1.86,1.52"
     id="path82" />
  <rect
     class="cls-3"
     x="57.990002"
     y="31.290001"
     width="0.98000002"
     height="5.0100002"
     id="rect84" />
  <polygon
     class="cls-3"
     points="61.07,36.3 61.07,32.16 59.76,32.16 59.76,31.29 63.35,31.29 63.35,32.16 62.05,32.16 62.05,36.3 "
     id="polygon86" />
  <polygon
     class="cls-3"
     points="65.09,36.3 65.09,34.24 63.59,31.29 64.65,31.29 65.59,33.31 66.51,31.29 67.57,31.29 66.07,34.24 66.07,36.3 "
     id="polygon88" />
  <path
     class="cls-3"
     d="m 26.22,12.91 -0.81,0.83 2.76,2.77 h -6 V 9.89 l -1.18,1.16 v 5.46 h -3.77 v -3.6 l -1.18,1.14 v 2.45 h -4.46 a 2.48,2.48 0 0 0 0.69,-2 2,2 0 0 0 -2.16,-1.78 2.07,2.07 0 0 0 -2.18,1.78 2.48,2.48 0 0 0 0.7,2 H 4.13 V 12.92 H 2.04 c -1.29,0 -2,0.79 -2,2.41 a 2.09,2.09 0 0 0 2,2.35 H 30.99 Z M 2.86,16.51 H 2.11 A 1.05,1.05 0 0 1 1.26,15.33 1.08,1.08 0 0 1 2.11,14.05 h 0.75 v 2.47 z m 7.24,-0.28 a 1.71,1.71 0 0 1 -0.9,-1.64 0.88,0.88 0 0 1 0.9,-0.77 0.91,0.91 0 0 1 0.89,0.77 1.68,1.68 0 0 1 -0.89,1.64"
     id="path90" />
  <rect
     class="cls-3"
     x="10.00642"
     y="26.072744"
     width="1.17"
     height="1.16"
     transform="rotate(-45.02)"
     id="rect92" />
  <rect
     class="cls-3"
     x="-1.777518"
     y="25.396927"
     width="1.17"
     height="1.16"
     transform="rotate(-45.02)"
     id="rect94" />
  <rect
     class="cls-3"
     x="-2.9160206"
     y="24.216854"
     width="1.17"
     height="1.15"
     transform="rotate(-45)"
     id="rect96" />
  <rect
     class="cls-3"
     x="-1.4848807"
     y="14.603916"
     width="1.17"
     height="1.16"
     transform="rotate(-45.02)"
     id="rect98" />
  <rect
     class="cls-3"
     x="-6.2782769"
     y="9.7654057"
     width="1.17"
     height="1.16"
     transform="rotate(-45)"
     id="rect100" />
  <rect
     class="cls-3"
     x="-7.4467049"
     y="8.5955944"
     width="1.17"
     height="1.16"
     transform="rotate(-45.02)"
     id="rect102" />
  <path
     class="cls-3"
     d="m 51.94,7.79 a 1.62,1.62 0 0 0 1.47,-0.74 1.64,1.64 0 0 0 1.5,0.76 c 1.38,0 2.15,-1 2.15,-2.55 0,-1.55 -0.78,-2.56 -2.15,-2.56 a 2.13,2.13 0 0 0 -2.15,2.24 c 0,0.67 0,1.69 -1.07,1.69 h -3.94 l 1.28,-1.12 a 2.78,2.78 0 0 0 -5.55,0 l 1.27,1.13 H 39.96 V 3.05 h -2.08 c -1.29,0 -2,0.79 -2,2.41 a 2.09,2.09 0 0 0 2,2.35 h 14.06 z m 2.94,-4 c 0.51,0 0.86,0.37 0.86,1.5 0,1.13 -0.33,1.42 -0.86,1.42 -0.53,0 -0.85,-0.37 -0.85,-1.44 0,-1.07 0.34,-1.49 0.85,-1.49 M 38.69,6.62 H 37.95 A 1.05,1.05 0 0 1 37.1,5.44 1.08,1.08 0 0 1 37.95,4.15 h 0.75 v 2.47 z m 6.13,-1.45 a 1.46,1.46 0 0 1 2.85,0 L 46.25,6.43 C 45.93,6.17 45.18,5.5 44.82,5.16"
     id="path104" />
  <polygon
     class="cls-3"
     points="61.95,3.9 64.69,6.62 59.61,6.62 59.61,0 58.42,1.15 58.42,7.79 67.52,7.79 62.78,3.07 "
     id="polygon106" />
  <rect
     class="cls-3"
     x="37.846966"
     y="50.943596"
     width="1.17"
     height="1.15"
     transform="rotate(-44.97)"
     id="rect108" />
  <path
     class="cls-3"
     d="m 62.8,12.9 -0.83,0.83 2.78,2.77 h -5.24 c -0.62,0 -0.93,-0.2 -0.93,-0.63 a 2.18,2.18 0 0 0 -2.17,-2.43 c -1.35,0 -2.11,1 -2.19,2.43 -0.05,0.61 -0.65,0.6 -1.14,0.63 h -3.23 v -3.6 l -1.18,1.15 v 2.45 h -2.14 v 1.18 h 6.94 a 2.52,2.52 0 0 0 1.11,-0.23 2,2 0 0 0 1.83,1.1 1.94,1.94 0 0 0 1.87,-1.14 3,3 0 0 0 1.27,0.27 h 8 z m -6.39,4.48 c -0.51,0 -0.86,-0.36 -0.86,-1.41 0,-1.05 0.34,-1.44 0.86,-1.44 0.52,0 0.86,0.36 0.86,1.47 0,1.11 -0.34,1.38 -0.86,1.38"
     id="path110" />
  <path
     class="cls-3"
     d="m 43.73,17.68 v -4.76 l -1.19,1.13 v 2.45 h -3.27 a 1,1 0 0 1 -1.14,-0.88 v -2.7 h -1.27 v 4.47 a 0.8,0.8 0 0 1 -0.89,0.94 0.82,0.82 0 0 1 -0.92,-0.94 v -4.47 h -1.26 v 4.5 a 2,2 0 0 0 2,2.11 2.25,2.25 0 0 0 0.27,0 2,2 0 0 0 2,-2.1 v 0 a 2.11,2.11 0 0 0 1,0.29 h 4.61 z"
     id="path112" />
  <rect
     class="cls-3"
     x="16.794567"
     y="32.852444"
     width="1.17"
     height="1.16"
     transform="rotate(-45)"
     id="rect114" />
  <rect
     class="cls-3"
     x="16.277813"
     y="43.51899"
     width="1.17"
     height="1.16"
     transform="rotate(-45.07)"
     id="rect116" />
  <rect
     class="cls-3"
     x="26.238871"
     y="28.254972"
     width="1.17"
     height="1.15"
     transform="rotate(-45.03)"
     id="rect118" />
  <rect
     class="cls-3"
     x="25.093266"
     y="27.067474"
     width="1.17"
     height="1.15"
     transform="rotate(-44.98)"
     id="rect120" />
</svg>
