<?xml version="1.0" encoding="UTF-8" standalone="no"?>
<svg
   xmlns:dc="http://purl.org/dc/elements/1.1/"
   xmlns:cc="http://creativecommons.org/ns#"
   xmlns:rdf="http://www.w3.org/1999/02/22-rdf-syntax-ns#"
   xmlns:svg="http://www.w3.org/2000/svg"
   xmlns="http://www.w3.org/2000/svg"
   xmlns:sodipodi="http://sodipodi.sourceforge.net/DTD/sodipodi-0.dtd"
   xmlns:inkscape="http://www.inkscape.org/namespaces/inkscape"
   id="Layer_1"
   data-name="Layer 1"
   viewBox="0 0 36.270001 39.923173"
   version="1.1"
   sodipodi:docname="logo_no_text_black.svg"
   inkscape:version="1.0.1 (3bc2e813f5, 2020-09-07)"
   width="36.27"
   height="39.923172">
  <metadata
     id="metadata199">
    <rdf:RDF>
      <cc:Work
         rdf:about="">
        <dc:format>image/svg+xml</dc:format>
        <dc:type
           rdf:resource="http://purl.org/dc/dcmitype/StillImage" />
        <dc:title>hbku</dc:title>
      </cc:Work>
    </rdf:RDF>
  </metadata>
  <sodipodi:namedview
     pagecolor="#ffffff"
     bordercolor="#666666"
     borderopacity="1"
     objecttolerance="10"
     gridtolerance="10"
     guidetolerance="10"
     inkscape:pageopacity="0"
     inkscape:pageshadow="2"
     inkscape:window-width="1920"
     inkscape:window-height="1048"
     id="namedview197"
     showgrid="false"
     inkscape:zoom="11.313709"
     inkscape:cx="7.7691779"
     inkscape:cy="30.904794"
     inkscape:window-x="0"
     inkscape:window-y="0"
     inkscape:window-maximized="1"
     inkscape:current-layer="Layer_1"
     inkscape:pagecheckerboard="true"
     fit-margin-top="0"
     fit-margin-left="0"
     fit-margin-right="0"
     fit-margin-bottom="0"
     inkscape:document-rotation="0" />
  <defs
     id="defs4">
    <style
       id="style2">.cls-1{fill:#00b2e2;}.cls-2{fill:#0076bc;}.cls-3{fill:#20285c;}.cls-4{fill:#00483a;}</style>
  </defs>
  <title
     id="title6">hbku</title>
  <path
     id="polygon8"
     style="fill:#000000;fill-opacity:1"
     d="M 0 0 L 0 17.630859 L 8.8203125 8.8105469 L 0 0 z M 8.8203125 8.8105469 L 7.4902344 10.150391 L 13.089844 15.75 L 1.890625 15.75 L 0 17.630859 L 17.640625 17.630859 L 17.640625 0 L 8.8203125 8.8105469 z " />
  <path
     id="polygon12"
     style="fill:#000000;fill-opacity:1"
     d="M 18.630859 0 L 18.630859 17.630859 L 27.449219 8.8105469 L 36.269531 0 L 18.630859 0 z M 27.449219 8.8105469 L 26.119141 10.150391 L 31.720703 15.75 L 20.519531 15.75 L 18.630859 17.630859 L 36.269531 17.630859 L 27.449219 8.8105469 z " />
  <path
     id="polygon16"
     style="fill:#000000;fill-opacity:1"
     d="M 18.630859 18.630859 L 18.630859 36.259766 L 36.269531 36.259766 L 36.269531 18.630859 L 27.449219 27.439453 L 18.630859 18.630859 z " />
  <path
     id="polygon22"
     style="fill:#000000;fill-opacity:1"
     d="M 0 18.630859 L 0 36.259766 L 17.640625 36.259766 L 8.8203125 27.439453 L 17.640625 18.630859 L 0 18.630859 z M 7.4902344 28.769531 L 13.089844 34.369141 L 1.890625 34.369141 L 7.4902344 28.769531 z " />
  <rect
     class="cls-3"
     x="-8.8424253"
     y="45.751015"
     width="1.88"
     height="1.88"
     transform="rotate(-45.02)"
     id="rect34"
     style="fill:#000000;fill-opacity:1" />
  <rect
     class="cls-3"
     x="-9.9576817"
     y="28.840523"
     width="1.89"
     height="1.88"
     transform="rotate(-45)"
     id="rect36"
     style="fill:#000000;fill-opacity:1" />
  <rect
     class="cls-3"
     x="4.3438125"
     y="32.585239"
     width="1.88"
     height="1.88"
     transform="rotate(-45)"
     id="rect38"
     style="fill:#000000;fill-opacity:1" />
</svg>
