<?xml version="1.0" encoding="UTF-8" standalone="no"?>
<svg
   xmlns:dc="http://purl.org/dc/elements/1.1/"
   xmlns:cc="http://creativecommons.org/ns#"
   xmlns:rdf="http://www.w3.org/1999/02/22-rdf-syntax-ns#"
   xmlns:svg="http://www.w3.org/2000/svg"
   xmlns="http://www.w3.org/2000/svg"
   xmlns:sodipodi="http://sodipodi.sourceforge.net/DTD/sodipodi-0.dtd"
   xmlns:inkscape="http://www.inkscape.org/namespaces/inkscape"
   id="Layer_1"
   data-name="Layer 1"
   viewBox="0 0 36.270001 39.923173"
   version="1.1"
   sodipodi:docname="logo_no_text_color.svg"
   inkscape:version="1.0.2 (e86c870879, 2021-01-15)"
   width="36.27"
   height="39.923172">
  <metadata
     id="metadata199">
    <rdf:RDF>
      <cc:Work
         rdf:about="">
        <dc:format>image/svg+xml</dc:format>
        <dc:type
           rdf:resource="http://purl.org/dc/dcmitype/StillImage" />
        <dc:title>hbku</dc:title>
      </cc:Work>
    </rdf:RDF>
  </metadata>
  <sodipodi:namedview
     pagecolor="#ffffff"
     bordercolor="#666666"
     borderopacity="1"
     objecttolerance="10"
     gridtolerance="10"
     guidetolerance="10"
     inkscape:pageopacity="0"
     inkscape:pageshadow="2"
     inkscape:window-width="1920"
     inkscape:window-height="1054"
     id="namedview197"
     showgrid="false"
     inkscape:zoom="11.313709"
     inkscape:cx="7.7691779"
     inkscape:cy="31.681028"
     inkscape:window-x="0"
     inkscape:window-y="0"
     inkscape:window-maximized="1"
     inkscape:current-layer="Layer_1"
     inkscape:pagecheckerboard="true"
     fit-margin-top="0"
     fit-margin-left="0"
     fit-margin-right="0"
     fit-margin-bottom="0"
     inkscape:document-rotation="0" />
  <defs
     id="defs4">
    <style
       id="style2">.cls-1{fill:#00b2e2;}.cls-2{fill:#0076bc;}.cls-3{fill:#20285c;}.cls-4{fill:#00483a;}</style>
  </defs>
  <title
     id="title6">hbku</title>
  <polygon
     class="cls-1"
     points="81.4,8.86 90.22,17.68 90.22,0.05 "
     id="polygon8"
     transform="matrix(0.54640576,0,0,0.54640576,-31.432198,9.027141)" />
  <polygon
     class="cls-2"
     points="72.58,0.05 72.58,17.68 81.4,8.86 "
     id="polygon10"
     transform="matrix(0.54640576,0,0,0.54640576,-31.432198,9.027141)" />
  <polygon
     class="cls-1"
     points="108.85,0.05 91.21,0.05 100.03,8.86 "
     id="polygon12"
     transform="matrix(0.54640576,0,0,0.54640576,-31.432198,9.027141)" />
  <polygon
     class="cls-2"
     points="91.21,0.05 91.21,17.68 100.03,8.86 "
     id="polygon14"
     transform="matrix(0.54640576,0,0,0.54640576,-31.432198,9.027141)" />
  <polygon
     class="cls-2"
     points="100.03,27.49 108.85,36.31 108.85,18.68 "
     id="polygon16"
     transform="matrix(0.54640576,0,0,0.54640576,-31.432198,9.027141)" />
  <polygon
     class="cls-1"
     points="100.03,27.49 91.21,36.31 108.85,36.31 "
     id="polygon18"
     transform="matrix(0.54640576,0,0,0.54640576,-31.432198,9.027141)" />
  <polygon
     class="cls-2"
     points="91.21,18.68 91.21,36.31 100.03,27.49 "
     id="polygon20"
     transform="matrix(0.54640576,0,0,0.54640576,-31.432198,9.027141)" />
  <polygon
     class="cls-2"
     points="90.22,18.68 72.58,18.68 81.4,27.49 "
     id="polygon22"
     transform="matrix(0.54640576,0,0,0.54640576,-31.432198,9.027141)" />
  <polygon
     class="cls-1"
     points="72.58,18.68 72.58,36.31 81.4,27.49 "
     id="polygon24"
     transform="matrix(0.54640576,0,0,0.54640576,-31.432198,9.027141)" />
  <polygon
     class="cls-3"
     points="108.85,17.68 100.03,8.86 98.7,10.2 104.3,15.8 93.1,15.8 91.21,17.68 "
     id="polygon26"
     transform="matrix(0.54640576,0,0,0.54640576,-31.432198,9.027141)" />
  <polygon
     class="cls-3"
     points="90.22,17.68 81.4,8.86 80.07,10.2 85.67,15.8 74.47,15.8 72.58,17.68 "
     id="polygon28"
     transform="matrix(0.54640576,0,0,0.54640576,-31.432198,9.027141)" />
  <polygon
     class="cls-3"
     points="90.22,36.31 81.4,27.49 80.07,28.82 85.67,34.42 74.47,34.42 72.58,36.31 "
     id="polygon30"
     transform="matrix(0.54640576,0,0,0.54640576,-31.432198,9.027141)" />
  <polygon
     class="cls-3"
     points="108.85,36.31 106.96,34.42 93.1,34.42 91.21,36.31 "
     id="polygon32"
     transform="matrix(0.54640576,0,0,0.54640576,-31.432198,9.027141)" />
  <rect
     class="cls-3"
     x="-5.4216762"
     y="37.217495"
     width="1.0272428"
     height="1.0272428"
     transform="rotate(-45.02)"
     id="rect34"
     style="stroke-width:0.546406" />
  <rect
     class="cls-3"
     x="-6.0267935"
     y="27.977711"
     width="1.0327069"
     height="1.0272428"
     transform="rotate(-45)"
     id="rect36"
     style="stroke-width:0.546406" />
  <rect
     class="cls-3"
     x="1.7876251"
     y="30.023846"
     width="1.0272428"
     height="1.0272428"
     transform="rotate(-45)"
     id="rect38"
     style="stroke-width:0.546406" />
</svg>
