<svg xmlns="http://www.w3.org/2000/svg" width="18.285" height="16" viewBox="0 0 18.285 16">
    <defs>
        <style>
            .a {
                fill: #1e1656;
            }
        </style>
    </defs>
    <path class="a" d="M92.951,3.81A3.81,3.81,0,1,1,89.142,0,3.809,3.809,0,0,1,92.951,3.81Zm0,0"
        transform="translate(-82.284)" />
    <path class="a"
        d="M10.1,256H3.619A3.623,3.623,0,0,0,0,259.619v2.667a.572.572,0,0,0,.571.571H13.143a.572.572,0,0,0,.571-.571v-2.667A3.623,3.623,0,0,0,10.1,256Zm0,0"
        transform="translate(0 -246.857)" />
    <path class="a"
        d="M306.1,109.315l-2.667-2.476a.573.573,0,0,0-.961.419v1.714H299.43a.762.762,0,0,0,0,1.524h3.047v1.714a.572.572,0,0,0,.961.419l2.667-2.476a.573.573,0,0,0,0-.838Zm0,0"
        transform="translate(-288.001 -102.877)" />
</svg>